<?xml version="1.0" encoding="UTF-8" standalone="no"?>
<!DOCTYPE svg PUBLIC "-//W3C//DTD SVG 1.1//EN" "http://www.w3.org/Graphics/SVG/1.1/DTD/svg11.dtd">
<!-- Generiert durch Microsoft Visio, SVG Export hodea_review_minder_logo.svg Zeichenblatt-1 -->
<svg xmlns="http://www.w3.org/2000/svg" xmlns:xlink="http://www.w3.org/1999/xlink" xmlns:ev="http://www.w3.org/2001/xml-events"
		xmlns:v="http://schemas.microsoft.com/visio/2003/SVGExtensions/" width="1.76353in" height="1.76353in"
		viewBox="0 0 126.974 126.974" xml:space="preserve" color-interpolation-filters="sRGB" class="st13">
	<v:documentProperties v:langID="3079" v:metric="true" v:viewMarkup="false"/>

	<style type="text/css">
	<![CDATA[
		.st1 {stroke:#000000;stroke-linecap:round;stroke-linejoin:round;stroke-width:2.25}
		.st2 {fill:#ffffff;stroke:#000000;stroke-linecap:round;stroke-linejoin:round;stroke-width:0.75}
		.st3 {fill:#ffffff;stroke:#000000;stroke-linecap:round;stroke-linejoin:round;stroke-width:1}
		.st4 {fill:none;stroke:none;stroke-linecap:round;stroke-linejoin:round;stroke-width:1}
		.st5 {fill:#ff0000;font-family:Bell MT;font-size:1.00001em;font-weight:bold}
		.st6 {fill:#000000;font-size:0.666659em;font-weight:normal}
		.st7 {font-size:1.33332em}
		.st8 {fill:#000000;font-size:1em;font-weight:normal}
		.st9 {font-size:1em}
		.st10 {fill:#f2f2f2;stroke:none;stroke-linecap:round;stroke-linejoin:round;stroke-width:1}
		.st11 {fill:#000000;font-family:Calibri;font-size:0.666664em}
		.st12 {fill:#0070c0;stroke:#0070c0;stroke-linecap:butt;stroke-width:0.75}
		.st13 {fill:none;fill-rule:evenodd;font-size:12px;overflow:visible;stroke-linecap:square;stroke-miterlimit:3}
	]]>
	</style>

	<g v:mID="0" v:index="1" v:groupContext="foregroundPage">
		<title>Zeichenblatt-1</title>
		<v:pageProperties v:drawingScale="0.0393701" v:pageScale="0.0393701" v:drawingUnits="24" v:shadowOffsetX="8.50394"
				v:shadowOffsetY="-8.50394"/>
		<g id="shape3-1" v:mID="3" v:groupContext="shape" transform="translate(-114.511,6.79426) rotate(-90)">
			<title>Tabelle.3</title>
			<path d="M0 126.97 L5.67 126.97" class="st1"/>
		</g>
		<g id="shape4-4" v:mID="4" v:groupContext="shape" transform="translate(-108.842,6.79426) rotate(-90)">
			<title>Tabelle.4</title>
			<path d="M0 126.97 L5.67 126.97" class="st1"/>
		</g>
		<g id="shape5-7" v:mID="5" v:groupContext="shape" transform="translate(-103.172,6.79426) rotate(-90)">
			<title>Tabelle.5</title>
			<path d="M0 126.97 L5.67 126.97" class="st1"/>
		</g>
		<g id="shape6-10" v:mID="6" v:groupContext="shape" transform="translate(-97.503,6.79426) rotate(-90)">
			<title>Tabelle.6</title>
			<path d="M0 126.97 L5.67 126.97" class="st1"/>
		</g>
		<g id="shape7-13" v:mID="7" v:groupContext="shape" transform="translate(-91.8337,6.79426) rotate(-90)">
			<title>Tabelle.7</title>
			<path d="M0 126.97 L5.67 126.97" class="st1"/>
		</g>
		<g id="shape8-16" v:mID="8" v:groupContext="shape" transform="translate(-86.1644,6.79426) rotate(-90)">
			<title>Tabelle.8</title>
			<path d="M0 126.97 L5.67 126.97" class="st1"/>
		</g>
		<g id="shape9-19" v:mID="9" v:groupContext="shape" transform="translate(-80.4951,6.79426) rotate(-90)">
			<title>Tabelle.9</title>
			<path d="M0 126.97 L5.67 126.97" class="st1"/>
		</g>
		<g id="shape10-22" v:mID="10" v:groupContext="shape" transform="translate(-74.8258,6.79426) rotate(-90)">
			<title>Tabelle.10</title>
			<path d="M0 126.97 L5.67 126.97" class="st1"/>
		</g>
		<g id="shape11-25" v:mID="11" v:groupContext="shape" transform="translate(-69.1565,6.79426) rotate(-90)">
			<title>Tabelle.11</title>
			<path d="M0 126.97 L5.67 126.97" class="st1"/>
		</g>
		<g id="shape12-28" v:mID="12" v:groupContext="shape" transform="translate(-63.4872,6.79426) rotate(-90)">
			<title>Tabelle.12</title>
			<path d="M0 126.97 L5.67 126.97" class="st1"/>
		</g>
		<g id="shape13-31" v:mID="13" v:groupContext="shape" transform="translate(-57.8179,6.79426) rotate(-90)">
			<title>Tabelle.13</title>
			<path d="M0 126.97 L5.67 126.97" class="st1"/>
		</g>
		<g id="shape14-34" v:mID="14" v:groupContext="shape" transform="translate(-52.1486,6.79426) rotate(-90)">
			<title>Tabelle.14</title>
			<path d="M0 126.97 L5.67 126.97" class="st1"/>
		</g>
		<g id="shape15-37" v:mID="15" v:groupContext="shape" transform="translate(-46.4793,6.79426) rotate(-90)">
			<title>Tabelle.15</title>
			<path d="M0 126.97 L5.67 126.97" class="st1"/>
		</g>
		<g id="shape16-40" v:mID="16" v:groupContext="shape" transform="translate(-40.81,6.79426) rotate(-90)">
			<title>Tabelle.16</title>
			<path d="M0 126.97 L5.67 126.97" class="st1"/>
		</g>
		<g id="shape17-43" v:mID="17" v:groupContext="shape" transform="translate(-35.1407,6.79426) rotate(-90)">
			<title>Tabelle.17</title>
			<path d="M0 126.97 L5.67 126.97" class="st1"/>
		</g>
		<g id="shape18-46" v:mID="18" v:groupContext="shape" transform="translate(-29.4715,6.79426) rotate(-90)">
			<title>Tabelle.18</title>
			<path d="M0 126.97 L5.67 126.97" class="st1"/>
		</g>
		<g id="shape19-49" v:mID="19" v:groupContext="shape" transform="translate(-23.8022,6.79426) rotate(-90)">
			<title>Tabelle.19</title>
			<path d="M0 126.97 L5.67 126.97" class="st1"/>
		</g>
		<g id="shape20-52" v:mID="20" v:groupContext="shape" transform="translate(-18.1329,6.79426) rotate(-90)">
			<title>Tabelle.20</title>
			<path d="M0 126.97 L5.67 126.97" class="st1"/>
		</g>
		<g id="shape21-55" v:mID="21" v:groupContext="shape" transform="translate(-12.4636,6.79426) rotate(-90)">
			<title>Tabelle.21</title>
			<path d="M0 126.97 L5.67 126.97" class="st1"/>
		</g>
		<g id="shape23-58" v:mID="23" v:groupContext="shape" transform="translate(-114.511,125.849) rotate(-90)">
			<title>Tabelle.23</title>
			<path d="M0 126.97 L5.67 126.97" class="st1"/>
		</g>
		<g id="shape24-61" v:mID="24" v:groupContext="shape" transform="translate(-108.842,125.849) rotate(-90)">
			<title>Tabelle.24</title>
			<path d="M0 126.97 L5.67 126.97" class="st1"/>
		</g>
		<g id="shape25-64" v:mID="25" v:groupContext="shape" transform="translate(-103.172,125.849) rotate(-90)">
			<title>Tabelle.25</title>
			<path d="M0 126.97 L5.67 126.97" class="st1"/>
		</g>
		<g id="shape26-67" v:mID="26" v:groupContext="shape" transform="translate(-97.503,125.849) rotate(-90)">
			<title>Tabelle.26</title>
			<path d="M0 126.97 L5.67 126.97" class="st1"/>
		</g>
		<g id="shape27-70" v:mID="27" v:groupContext="shape" transform="translate(-91.8337,125.849) rotate(-90)">
			<title>Tabelle.27</title>
			<path d="M0 126.97 L5.67 126.97" class="st1"/>
		</g>
		<g id="shape28-73" v:mID="28" v:groupContext="shape" transform="translate(-86.1644,125.849) rotate(-90)">
			<title>Tabelle.28</title>
			<path d="M0 126.97 L5.67 126.97" class="st1"/>
		</g>
		<g id="shape29-76" v:mID="29" v:groupContext="shape" transform="translate(-80.4951,125.849) rotate(-90)">
			<title>Tabelle.29</title>
			<path d="M0 126.97 L5.67 126.97" class="st1"/>
		</g>
		<g id="shape30-79" v:mID="30" v:groupContext="shape" transform="translate(-74.8258,125.849) rotate(-90)">
			<title>Tabelle.30</title>
			<path d="M0 126.97 L5.67 126.97" class="st1"/>
		</g>
		<g id="shape31-82" v:mID="31" v:groupContext="shape" transform="translate(-69.1565,125.849) rotate(-90)">
			<title>Tabelle.31</title>
			<path d="M0 126.97 L5.67 126.97" class="st1"/>
		</g>
		<g id="shape32-85" v:mID="32" v:groupContext="shape" transform="translate(-63.4872,125.849) rotate(-90)">
			<title>Tabelle.32</title>
			<path d="M0 126.97 L5.67 126.97" class="st1"/>
		</g>
		<g id="shape33-88" v:mID="33" v:groupContext="shape" transform="translate(-57.8179,125.849) rotate(-90)">
			<title>Tabelle.33</title>
			<path d="M0 126.97 L5.67 126.97" class="st1"/>
		</g>
		<g id="shape34-91" v:mID="34" v:groupContext="shape" transform="translate(-52.1486,125.849) rotate(-90)">
			<title>Tabelle.34</title>
			<path d="M0 126.97 L5.67 126.97" class="st1"/>
		</g>
		<g id="shape35-94" v:mID="35" v:groupContext="shape" transform="translate(-46.4793,125.849) rotate(-90)">
			<title>Tabelle.35</title>
			<path d="M0 126.97 L5.67 126.97" class="st1"/>
		</g>
		<g id="shape36-97" v:mID="36" v:groupContext="shape" transform="translate(-40.81,125.849) rotate(-90)">
			<title>Tabelle.36</title>
			<path d="M0 126.97 L5.67 126.97" class="st1"/>
		</g>
		<g id="shape37-100" v:mID="37" v:groupContext="shape" transform="translate(-35.1407,125.849) rotate(-90)">
			<title>Tabelle.37</title>
			<path d="M0 126.97 L5.67 126.97" class="st1"/>
		</g>
		<g id="shape38-103" v:mID="38" v:groupContext="shape" transform="translate(-29.4715,125.849) rotate(-90)">
			<title>Tabelle.38</title>
			<path d="M0 126.97 L5.67 126.97" class="st1"/>
		</g>
		<g id="shape39-106" v:mID="39" v:groupContext="shape" transform="translate(-23.8022,125.849) rotate(-90)">
			<title>Tabelle.39</title>
			<path d="M0 126.97 L5.67 126.97" class="st1"/>
		</g>
		<g id="shape40-109" v:mID="40" v:groupContext="shape" transform="translate(-18.1329,125.849) rotate(-90)">
			<title>Tabelle.40</title>
			<path d="M0 126.97 L5.67 126.97" class="st1"/>
		</g>
		<g id="shape41-112" v:mID="41" v:groupContext="shape" transform="translate(-12.4636,125.849) rotate(-90)">
			<title>Tabelle.41</title>
			<path d="M0 126.97 L5.67 126.97" class="st1"/>
		</g>
		<g id="shape42-115" v:mID="42" v:groupContext="shape" transform="translate(6.79426,241.485) rotate(180)">
			<title>Tabelle.42</title>
			<path d="M0 126.97 L5.67 126.97" class="st1"/>
		</g>
		<g id="shape43-118" v:mID="43" v:groupContext="shape" transform="translate(6.79426,235.816) rotate(180)">
			<title>Tabelle.43</title>
			<path d="M0 126.97 L5.67 126.97" class="st1"/>
		</g>
		<g id="shape44-121" v:mID="44" v:groupContext="shape" transform="translate(6.79426,230.147) rotate(180)">
			<title>Tabelle.44</title>
			<path d="M0 126.97 L5.67 126.97" class="st1"/>
		</g>
		<g id="shape45-124" v:mID="45" v:groupContext="shape" transform="translate(6.79426,224.477) rotate(180)">
			<title>Tabelle.45</title>
			<path d="M0 126.97 L5.67 126.97" class="st1"/>
		</g>
		<g id="shape46-127" v:mID="46" v:groupContext="shape" transform="translate(6.79426,218.808) rotate(180)">
			<title>Tabelle.46</title>
			<path d="M0 126.97 L5.67 126.97" class="st1"/>
		</g>
		<g id="shape47-130" v:mID="47" v:groupContext="shape" transform="translate(6.79426,213.139) rotate(180)">
			<title>Tabelle.47</title>
			<path d="M0 126.97 L5.67 126.97" class="st1"/>
		</g>
		<g id="shape48-133" v:mID="48" v:groupContext="shape" transform="translate(6.79426,207.469) rotate(180)">
			<title>Tabelle.48</title>
			<path d="M0 126.97 L5.67 126.97" class="st1"/>
		</g>
		<g id="shape49-136" v:mID="49" v:groupContext="shape" transform="translate(6.79426,201.8) rotate(180)">
			<title>Tabelle.49</title>
			<path d="M0 126.97 L5.67 126.97" class="st1"/>
		</g>
		<g id="shape50-139" v:mID="50" v:groupContext="shape" transform="translate(6.79426,196.131) rotate(180)">
			<title>Tabelle.50</title>
			<path d="M0 126.97 L5.67 126.97" class="st1"/>
		</g>
		<g id="shape51-142" v:mID="51" v:groupContext="shape" transform="translate(6.79426,190.462) rotate(180)">
			<title>Tabelle.51</title>
			<path d="M0 126.97 L5.67 126.97" class="st1"/>
		</g>
		<g id="shape52-145" v:mID="52" v:groupContext="shape" transform="translate(6.79426,184.792) rotate(180)">
			<title>Tabelle.52</title>
			<path d="M0 126.97 L5.67 126.97" class="st1"/>
		</g>
		<g id="shape53-148" v:mID="53" v:groupContext="shape" transform="translate(6.79426,179.123) rotate(180)">
			<title>Tabelle.53</title>
			<path d="M0 126.97 L5.67 126.97" class="st1"/>
		</g>
		<g id="shape54-151" v:mID="54" v:groupContext="shape" transform="translate(6.79426,173.454) rotate(180)">
			<title>Tabelle.54</title>
			<path d="M0 126.97 L5.67 126.97" class="st1"/>
		</g>
		<g id="shape55-154" v:mID="55" v:groupContext="shape" transform="translate(6.79426,167.784) rotate(180)">
			<title>Tabelle.55</title>
			<path d="M0 126.97 L5.67 126.97" class="st1"/>
		</g>
		<g id="shape56-157" v:mID="56" v:groupContext="shape" transform="translate(6.79426,162.115) rotate(180)">
			<title>Tabelle.56</title>
			<path d="M0 126.97 L5.67 126.97" class="st1"/>
		</g>
		<g id="shape57-160" v:mID="57" v:groupContext="shape" transform="translate(6.79426,156.446) rotate(180)">
			<title>Tabelle.57</title>
			<path d="M0 126.97 L5.67 126.97" class="st1"/>
		</g>
		<g id="shape58-163" v:mID="58" v:groupContext="shape" transform="translate(6.79426,150.777) rotate(180)">
			<title>Tabelle.58</title>
			<path d="M0 126.97 L5.67 126.97" class="st1"/>
		</g>
		<g id="shape59-166" v:mID="59" v:groupContext="shape" transform="translate(6.79426,145.107) rotate(180)">
			<title>Tabelle.59</title>
			<path d="M0 126.97 L5.67 126.97" class="st1"/>
		</g>
		<g id="shape60-169" v:mID="60" v:groupContext="shape" transform="translate(6.79426,139.438) rotate(180)">
			<title>Tabelle.60</title>
			<path d="M0 126.97 L5.67 126.97" class="st1"/>
		</g>
		<g id="shape61-172" v:mID="61" v:groupContext="shape" transform="translate(125.849,241.485) rotate(180)">
			<title>Tabelle.61</title>
			<path d="M0 126.97 L5.67 126.97" class="st1"/>
		</g>
		<g id="shape62-175" v:mID="62" v:groupContext="shape" transform="translate(125.849,235.816) rotate(180)">
			<title>Tabelle.62</title>
			<path d="M0 126.97 L5.67 126.97" class="st1"/>
		</g>
		<g id="shape63-178" v:mID="63" v:groupContext="shape" transform="translate(125.849,230.147) rotate(180)">
			<title>Tabelle.63</title>
			<path d="M0 126.97 L5.67 126.97" class="st1"/>
		</g>
		<g id="shape64-181" v:mID="64" v:groupContext="shape" transform="translate(125.849,224.477) rotate(180)">
			<title>Tabelle.64</title>
			<path d="M0 126.97 L5.67 126.97" class="st1"/>
		</g>
		<g id="shape65-184" v:mID="65" v:groupContext="shape" transform="translate(125.849,218.808) rotate(180)">
			<title>Tabelle.65</title>
			<path d="M0 126.97 L5.67 126.97" class="st1"/>
		</g>
		<g id="shape66-187" v:mID="66" v:groupContext="shape" transform="translate(125.849,213.139) rotate(180)">
			<title>Tabelle.66</title>
			<path d="M0 126.97 L5.67 126.97" class="st1"/>
		</g>
		<g id="shape67-190" v:mID="67" v:groupContext="shape" transform="translate(125.849,207.469) rotate(180)">
			<title>Tabelle.67</title>
			<path d="M0 126.97 L5.67 126.97" class="st1"/>
		</g>
		<g id="shape68-193" v:mID="68" v:groupContext="shape" transform="translate(125.849,201.8) rotate(180)">
			<title>Tabelle.68</title>
			<path d="M0 126.97 L5.67 126.97" class="st1"/>
		</g>
		<g id="shape69-196" v:mID="69" v:groupContext="shape" transform="translate(125.849,196.131) rotate(180)">
			<title>Tabelle.69</title>
			<path d="M0 126.97 L5.67 126.97" class="st1"/>
		</g>
		<g id="shape70-199" v:mID="70" v:groupContext="shape" transform="translate(125.849,190.462) rotate(180)">
			<title>Tabelle.70</title>
			<path d="M0 126.97 L5.67 126.97" class="st1"/>
		</g>
		<g id="shape71-202" v:mID="71" v:groupContext="shape" transform="translate(125.849,184.792) rotate(180)">
			<title>Tabelle.71</title>
			<path d="M0 126.97 L5.67 126.97" class="st1"/>
		</g>
		<g id="shape72-205" v:mID="72" v:groupContext="shape" transform="translate(125.849,179.123) rotate(180)">
			<title>Tabelle.72</title>
			<path d="M0 126.97 L5.67 126.97" class="st1"/>
		</g>
		<g id="shape73-208" v:mID="73" v:groupContext="shape" transform="translate(125.849,173.454) rotate(180)">
			<title>Tabelle.73</title>
			<path d="M0 126.97 L5.67 126.97" class="st1"/>
		</g>
		<g id="shape74-211" v:mID="74" v:groupContext="shape" transform="translate(125.849,167.784) rotate(180)">
			<title>Tabelle.74</title>
			<path d="M0 126.97 L5.67 126.97" class="st1"/>
		</g>
		<g id="shape75-214" v:mID="75" v:groupContext="shape" transform="translate(125.849,162.115) rotate(180)">
			<title>Tabelle.75</title>
			<path d="M0 126.97 L5.67 126.97" class="st1"/>
		</g>
		<g id="shape76-217" v:mID="76" v:groupContext="shape" transform="translate(125.849,156.446) rotate(180)">
			<title>Tabelle.76</title>
			<path d="M0 126.97 L5.67 126.97" class="st1"/>
		</g>
		<g id="shape77-220" v:mID="77" v:groupContext="shape" transform="translate(125.849,150.777) rotate(180)">
			<title>Tabelle.77</title>
			<path d="M0 126.97 L5.67 126.97" class="st1"/>
		</g>
		<g id="shape78-223" v:mID="78" v:groupContext="shape" transform="translate(125.849,145.107) rotate(180)">
			<title>Tabelle.78</title>
			<path d="M0 126.97 L5.67 126.97" class="st1"/>
		</g>
		<g id="shape79-226" v:mID="79" v:groupContext="shape" transform="translate(125.849,139.438) rotate(180)">
			<title>Tabelle.79</title>
			<path d="M0 126.97 L5.67 126.97" class="st1"/>
		</g>
		<g id="shape1-229" v:mID="1" v:groupContext="shape" transform="translate(6.7943,-6.79432)">
			<title>Tabelle.1</title>
			<rect x="0" y="13.5886" width="113.386" height="113.386" class="st2"/>
		</g>
		<g id="shape80-231" v:mID="80" v:groupContext="shape" transform="translate(11.0463,-111.676)">
			<title>Tabelle.80</title>
			<ellipse cx="2.12598" cy="124.848" rx="2.12598" ry="2.12598" class="st3"/>
		</g>
		<g id="shape123-233" v:mID="123" v:groupContext="shape" transform="translate(63.4872,-28.0542)">
			<title>Tabelle.123</title>
			<desc>Highly Optimized Deeply Embedded Auxiliaries</desc>
			<v:textBlock v:margins="rect(4,4,4,4)" v:tabSpace="42.5197"/>
			<v:textRect cx="26.8425" cy="87.9587" width="53.69" height="78.0315"/>
			<rect x="0" y="48.9429" width="53.6849" height="78.0315" class="st4"/>
			<text x="4" y="55.56" class="st5" v:langID="3079"><v:paragraph/><v:tabList/>H<tspan class="st6">ighly<v:newlineChar/></tspan><tspan
						x="4" dy="1.125em" class="st7">O</tspan><tspan class="st8">pti</tspan><tspan class="st6">mized<v:newlineChar/></tspan><tspan
						x="4" dy="1.2em" class="st7">D</tspan><tspan class="st8">eepl</tspan><tspan class="st6">y<v:newlineChar/></tspan><tspan
						x="4" dy="1.2em" class="st7">E</tspan><tspan class="st8">m</tspan><tspan class="st6">bedded<v:newlineChar/></tspan><tspan
						x="4" dy="1.301em" class="st9">A</tspan><tspan class="st6">uxiliaries</tspan></text>		</g>
		<g id="shape125-248" v:mID="125" v:groupContext="shape" transform="translate(11.0463,-86.0484)">
			<title>Tabelle.125</title>
			<desc>Review Minder</desc>
			<v:textBlock v:margins="rect(4,4,4,4)" v:tabSpace="42.5197"/>
			<v:textRect cx="17.7165" cy="116.995" width="35.44" height="19.9586"/>
			<rect x="0" y="107.016" width="35.4331" height="19.9586" class="st10"/>
			<text x="5.98" y="114.6" class="st11" v:langID="3079"><v:paragraph v:horizAlign="1"/><v:tabList/>Review <tspan x="5.79"
						dy="1.2em" class="st9">Minder</tspan></text>		</g>
		<g id="shape154-252" v:mID="154" v:groupContext="shape" transform="translate(19.8224,-12.389)">
			<title>Suchen</title>
			<v:userDefs>
				<v:ud v:nameU="msvShapeCategories" v:prompt="" v:val="VT4(Icon)"/>
				<v:ud v:nameU="visVersion" v:prompt="" v:val="VT0(15):26"/>
			</v:userDefs>
			<path d="M56.7 41.94 A29.7007 29.233 -180 0 0 27 71.17 A29.5433 29.0781 -180 0 0 33.36 89.2 A7.51785 7.39946 -180 0 0
						 30.95 90.51 L1.85 114.82 A5.03731 4.95798 -180 0 0 1.4 122.1 L4.58 125.43 A4.74176 4.66709 -180 0 0 11.79
						 125.26 L37 96.47 A7.40923 7.29255 -180 0 0 38.35 94.13 A29.546 29.0807 -180 0 0 56.7 100.4 A29.7007 29.233
						 -180 0 0 86.4 71.17 A29.7007 29.233 -180 0 0 56.7 41.94 ZM56.7 95.09 A24.3299 23.9467 0 0 1 32.4 71.17 A24.3299
						 23.9467 0 0 1 56.7 47.25 A24.3299 23.9467 0 0 1 81 71.17 A24.3299 23.9467 0 0 1 56.7 95.09 Z" class="st12"/>
		</g>
	</g>
</svg>
